<?xml version="1.0" encoding="utf-8"?>
<!-- Generator: Adobe Illustrator 22.1.0, SVG Export Plug-In . SVG Version: 6.00 Build 0)  -->
<svg version="1.1" id="Layer_1" xmlns="http://www.w3.org/2000/svg" xmlns:xlink="http://www.w3.org/1999/xlink" x="0px" y="0px"
	 viewBox="0 0 1000 1000" style="enable-background:new 0 0 1000 1000;" xml:space="preserve">
<style type="text/css">
	.st0{fill:#231F20;stroke:#FFFFFF;stroke-width:20;stroke-miterlimit:10;}
	.st1{fill:url(#SVGID_1_);}
	.st2{fill:url(#SVGID_2_);}
	.st3{fill:url(#SVGID_3_);}
</style>
<circle class="st0" cx="502.8" cy="502.8" r="480.6"/>
<linearGradient id="SVGID_1_" gradientUnits="userSpaceOnUse" x1="566.5756" y1="404.7971" x2="661.4066" y2="404.7971">
	<stop  offset="0" style="stop-color:#FFF33B"/>
	<stop  offset="4.664164e-02" style="stop-color:#FFE029"/>
	<stop  offset="0.1021" style="stop-color:#FFD218"/>
	<stop  offset="0.1593" style="stop-color:#FEC90F"/>
	<stop  offset="0.2202" style="stop-color:#FDC70C"/>
	<stop  offset="0.5299" style="stop-color:#F3903F"/>
	<stop  offset="0.8029" style="stop-color:#ED683C"/>
	<stop  offset="1" style="stop-color:#BE2F26"/>
</linearGradient>
<path class="st1" d="M566.6,238.2c0,0,86.7,105.7,13.5,222.2c0,0,17.6,55.5-5.4,111.1c0,0,86.7-92.1,86.7-181.5
	S566.6,238.2,566.6,238.2z"/>
<linearGradient id="SVGID_2_" gradientUnits="userSpaceOnUse" x1="262.8902" y1="434.6011" x2="588.2512" y2="434.6011">
	<stop  offset="0" style="stop-color:#FFF33B"/>
	<stop  offset="4.664164e-02" style="stop-color:#FFE029"/>
	<stop  offset="0.1021" style="stop-color:#FFD218"/>
	<stop  offset="0.1593" style="stop-color:#FEC90F"/>
	<stop  offset="0.2202" style="stop-color:#FDC70C"/>
	<stop  offset="0.5299" style="stop-color:#F3903F"/>
	<stop  offset="0.8029" style="stop-color:#ED683C"/>
	<stop  offset="1" style="stop-color:#BE2F26"/>
</linearGradient>
<path class="st2" d="M588.3,56.6c0,0-124.6,19-124.6,189.7s103.6,130.1,105.7,273.7c1.4,96.2-168,238.4-168,292.6
	c0,0,5.4-108.4-65-178.8C255,534,263.1,422.4,263.1,398C263.1,224.6,493.4,56.6,588.3,56.6z"/>
<linearGradient id="SVGID_3_" gradientUnits="userSpaceOnUse" x1="343.0003" y1="689.3794" x2="742.6904" y2="689.3794">
	<stop  offset="0" style="stop-color:#FFF33B"/>
	<stop  offset="4.664164e-02" style="stop-color:#FFE029"/>
	<stop  offset="0.1021" style="stop-color:#FFD218"/>
	<stop  offset="0.1593" style="stop-color:#FEC90F"/>
	<stop  offset="0.2202" style="stop-color:#FDC70C"/>
	<stop  offset="0.5299" style="stop-color:#F3903F"/>
	<stop  offset="0.8029" style="stop-color:#ED683C"/>
	<stop  offset="1" style="stop-color:#BE2F26"/>
</linearGradient>
<path class="st3" d="M344.4,920.9c0,0-6.8-6.8,9.5-28.4c52.6-70.1,304.8-421.3,334.6-432.2c29.8-10.8,54.2,13.5,54.2,65
	c0,0-5.4-13.5-29.8-13.5c-24.4,0-35.2,51.5-35.2,86.7c0,35.2,8.1,208.6-135.5,208.6S344.4,920.9,344.4,920.9z"/>
</svg>
